Patient4_TMGait_0pt2_02_right_16_GRF.mot
version=1
nRows=38
nColumns=19
inDegrees=no
endheader
time	F1x	F1y	F1z	M1x	M1y	M1z	F2x	F2y	F2z	M2x	M2y	M2z	EC1x	EC1y	EC1z	EC2x	EC2y	EC2z
35.55	-17.5005	878.548	60.8275	-301.0777	-72.374	990.3055	-10.9145	-5.6804	2.989	-1.0721	0.44921	-4.5381	-0.0592	0.0182	-0.0073	-0.0462	0.0165	0.9585
35.5723	-16.012	874.1675	59.745	-300.0709	-70.088	982.049	-7.4482	-3.8473	1.9007	-0.71806	0.47882	-3.0444	-0.0592	0.0182	-0.0073	-0.0462	0.0165	0.9585
35.5946	-14.2037	866.2272	58.1833	-297.9032	-67.1039	969.4359	-4.4844	-2.265	0.95862	-0.4109	0.52382	-1.7526	-0.0592	0.0182	-0.0073	-0.0462	0.0165	0.9585
35.6169	-12.1093	854.4345	56.2317	-294.4257	-63.5567	952.3061	-2.2108	-1.0301	0.22657	-0.17003	0.57569	-0.74031	-0.0592	0.0182	-0.0073	-0.0462	0.0165	0.9585
35.6391	-9.7382	839.2731	54.069	-289.7539	-59.6675	931.31	-0.62883	-0.14732	-0.28891	0.0019199	0.62371	-0.0133	-0.0592	0.0182	-0.0073	-0.0462	0.0165	0.9585
35.6614	-7.0969	821.8369	51.9073	-284.222	-55.6903	907.7248	0.35756	0.42287	-0.61669	0.11101	0.66212	0.45827	-0.0592	0.0182	-0.0073	-0.0462	0.0165	0.9585
35.6837	-4.2042	803.5421	49.9285	-278.2899	-51.8503	883.15	0.88305	0.73188	-0.80154	0.16592	0.69138	0.70734	-0.0592	0.0182	-0.0073	-0.0462	0.0165	0.9585
35.706	-1.081	785.8455	48.2415	-272.4497	-48.2873	859.206	1.0868	0.82127	-0.88645	0.17139	0.71413	0.75292	-0.0592	0.0182	-0.0073	-0.0462	0.0165	0.9585
35.7283	2.2524	770.0062	46.869	-267.145	-45.0401	837.2866	1.0911	0.71317	-0.90627	0.1266	0.73035	0.59888	-0.0592	0.0182	-0.0073	-0.0462	0.0165	0.9585
35.7506	5.7709	756.9408	45.7637	-262.714	-42.0737	818.4093	0.99373	0.40677	-0.88671	0.024518	0.73603	0.22744	-0.0592	0.0182	-0.0073	-0.0462	0.0165	0.9585
35.7729	9.451	747.1771	44.835	-259.3658	-39.3068	803.1654	0.86698	-0.11683	-0.84484	-0.14561	0.72317	-0.39721	-0.0592	0.0182	-0.0073	-0.0462	0.0165	0.9585
35.7951	13.2564	740.8535	43.989	-257.1705	-36.6549	791.7331	0.76291	-0.88263	-0.78767	-0.39502	0.67912	-1.3127	-0.0592	0.0182	-0.0073	-0.0462	0.0165	0.9585
35.8174	17.1145	737.7701	43.1769	-256.0697	-34.0891	783.9388	0.71743	-1.9007	-0.7127	-0.7289	0.589	-2.5351	-0.0592	0.0182	-0.0073	-0.0462	0.0165	0.9585
35.8397	20.92	737.4914	42.4148	-255.9141	-31.659	779.3675	0.75314	-3.1397	-0.60795	-1.1383	0.43329	-4.0272	-0.0592	0.0182	-0.0073	-0.0462	0.0165	0.9585
35.862	24.5801	739.4883	41.7678	-256.5169	-29.4605	777.5044	0.88233	-4.4894	-0.45821	-1.5877	0.1911	-5.6571	-0.0592	0.0182	-0.0073	-0.0462	0.0165	0.9585
35.8843	28.0277	743.1894	41.3326	-257.6704	-27.6088	777.7762	1.106	-5.7145	-0.24668	-1.9998	-0.15553	-7.136	-0.0592	0.0182	-0.0073	-0.0462	0.0165	0.9585
35.9066	31.1996	747.9452	41.2228	-259.1363	-26.2296	779.5172	1.4054	-6.4106	0.039848	-2.2398	-0.61254	-7.957	-0.0592	0.0182	-0.0073	-0.0462	0.0165	0.9585
35.9289	34.0272	752.9838	41.5441	-260.6334	-25.4427	781.9299	1.7354	-5.962	0.40151	-2.0998	-1.1603	-7.3461	-0.0592	0.0182	-0.0073	-0.0462	0.0165	0.9585
35.9511	36.4417	757.3807	42.3566	-261.8314	-25.3241	784.06	2.0182	-3.5151	0.81674	-1.2915	-1.7407	-4.2384	-0.0592	0.0182	-0.0073	-0.0462	0.0165	0.9585
35.9734	38.3825	760.0734	43.6252	-262.3596	-25.8551	784.8075	2.1295	2.001	1.2279	0.5475	-2.2335	2.6946	-0.0592	0.0182	-0.0073	-0.0462	0.0165	0.9585
35.9957	39.7958	759.9191	45.2102	-261.8283	-26.9163	782.993	1.8865	11.7754	1.5227	3.8224	-2.4298	14.9215	-0.0592	0.0182	-0.0073	-0.0462	0.0165	0.9585
36.018	40.6275	755.7346	46.8855	-259.8418	-28.3055	777.4027	1.0472	26.8992	1.5208	8.9088	-2.0173	33.776	-0.0592	0.0182	-0.0073	-0.0462	0.0165	0.9585
36.0403	40.8201	746.3773	48.3728	-256.0252	-29.7702	766.8697	-0.67392	48.0119	0.97215	16.0338	-0.58629	60.0228	-0.0592	0.0182	-0.0073	-0.0462	0.0165	0.9585
36.0626	40.3256	730.9239	49.3904	-250.0841	-31.0508	750.4508	-3.4622	74.92	-0.38209	25.1417	2.2468	93.3895	-0.0592	0.0182	-0.0073	-0.0462	0.0165	0.9585
36.0849	39.1386	708.888	49.7064	-241.8793	-31.9208	727.6355	-7.1916	106.3924	-2.7121	35.8201	6.6326	132.3179	-0.0592	0.0182	-0.0073	-0.0462	0.0165	0.9585
36.1071	37.3454	680.4238	49.1917	-231.4947	-32.224	698.5322	-11.4304	140.3407	-5.9575	47.3658	12.3235	174.2039	-0.0592	0.0182	-0.0073	-0.0462	0.0165	0.9585
36.1294	35.1632	646.4932	47.8517	-219.2905	-31.8901	664.0207	-15.7134	174.5173	-9.7574	59.0295	18.6988	216.2767	-0.0592	0.0182	-0.0073	-0.0462	0.0165	0.9585
36.1517	32.8988	608.8233	45.8205	-205.8855	-30.9393	625.7225	-19.7502	207.3814	-13.5694	70.3067	24.99	256.6622	-0.0592	0.0182	-0.0073	-0.0462	0.0165	0.9585
36.174	30.824	569.5007	43.3142	-192.0148	-29.4788	585.6394	-23.3624	238.3684	-16.9526	81.0127	30.5996	294.6783	-0.0592	0.0182	-0.0073	-0.0462	0.0165	0.9585
36.1963	29.092	530.4831	40.5825	-178.359	-27.6909	545.697	-26.4056	267.5373	-19.7597	91.1493	35.2964	330.3771	-0.0592	0.0182	-0.0073	-0.0462	0.0165	0.9585
36.2186	27.7305	493.2933	37.8441	-165.442	-25.7715	507.432	-28.7588	295.1015	-22.0851	100.7538	39.1487	363.9744	-0.0592	0.0182	-0.0073	-0.0462	0.0165	0.9585
36.2409	26.6935	458.9159	35.2503	-153.5965	-23.8758	471.8746	-30.3536	321.1655	-24.0794	109.8258	42.3143	395.5505	-0.0592	0.0182	-0.0073	-0.0462	0.0165	0.9585
36.2631	25.9111	427.8237	32.8881	-142.9749	-22.1041	439.5601	-31.1805	345.6356	-25.8493	118.3048	44.9202	424.9503	-0.0592	0.0182	-0.0073	-0.0462	0.0165	0.9585
36.2854	25.3268	400.0977	30.7854	-133.589	-20.4968	410.6286	-31.2784	368.3275	-27.4526	126.1117	47.0487	451.9235	-0.0592	0.0182	-0.0073	-0.0462	0.0165	0.9585
36.3077	24.92	375.5925	28.9305	-125.3668	-19.0462	384.9755	-30.7204	389.1583	-28.8903	133.218	48.7272	476.3586	-0.0592	0.0182	-0.0073	-0.0462	0.0165	0.9585
36.33	24.6926	354.0547	27.3051	-118.1958	-17.7337	362.3727	-29.6069	408.2097	-30.1385	139.6647	49.9637	498.357	-0.0592	0.0182	-0.0073	-0.0462	0.0165	0.9585
36.3523	24.6454	335.1259	25.9059	-111.9259	-16.5582	342.4747	-28.0786	425.6962	-31.192	145.5428	50.8029	518.2025	-0.0592	0.0182	-0.0073	-0.0462	0.0165	0.9585
36.3746	24.7511	318.2448	24.7314	-106.3409	-15.5305	324.7253	-26.3267	441.957	-32.0754	150.9828	51.3401	536.352	-0.0592	0.0182	-0.0073	-0.0462	0.0165	0.9585
